999
FreeCAD v1.0 39319 (Git)
  0
SECTION
  2
HEADER
  9
$ACADVER
  1
AC1014
  9
$ACADMAINTVER
 70
     9
  9
$DWGCODEPAGE
  3
ANSI_1252
  9
$TEXTSTYLE
  7
STANDARD
  9
$DIMSTYLE
  2
STANDARD
  9
$DIMTXSTY
  7
STANDARD
  9
$CMLSTYLE
  2
STANDARD
  9
$LUNITS
 70
2
  9
$INSUNITS
 70
4
  9
$PEXTMAX
 10
50
 20
50
 30
50
  9
$PEXTMIN
 10
0
 20
0
 30
0
  9
$HANDSEED
  5
FFFF
  0
ENDSEC
  0
SECTION
  2
CLASSES
  0
CLASS
  1
ACDBDICTIONARYWDFLT
  2
AcDbDictionaryWithDefault
  3
ObjectDBX Classes
 90
        0
280
     0
281
     0
  0
CLASS
  1
XRECORD
  2
AcDbXrecord
  3
ObjectDBX Classes
 90
        0
280
     0
281
     0
  0
CLASS
  1
LWPOLYLINE
  2
AcDbPolyline
  3
ObjectDBX Classes
 90
        0
280
     0
281
     1
  0
ENDSEC
  0
SECTION
  2
TABLES
  0
TABLE
  2
VPORT
  5
20
330
0
100
AcDbSymbolTable
 70
     1
  0
VPORT
  5
21
330
20
100
AcDbSymbolTableRecord
100
AcDbViewportTableRecord
  2
*ACTIVE
 70
     0
  0
ENDTAB
  0
TABLE
  2
LTYPE
  5
22
330
0
100
AcDbSymbolTable
 70
     1
  0
LTYPE
  5
23
330
21
100
AcDbSymbolTableRecord
100
AcDbLinetypeTableRecord
  2
BYBLOCK
 70
     0
  3

 72
    65
 73
     0
 40
0.0
  0
LTYPE
  5
24
330
21
100
AcDbSymbolTableRecord
100
AcDbLinetypeTableRecord
  2
BYLAYER
 70
     0
  3

 72
    65
 73
     0
 40
0.0
  0
LTYPE
  5
25
330
21
100
AcDbSymbolTableRecord
100
AcDbLinetypeTableRecord
  2
CONTINUOUS
 70
     0
  3
Solid line
 72
    65
 73
     0
 40
0.0
  0
ENDTAB
  0
TABLE
  2
LAYER
  5
A8E
330
0
100
AcDbSymbolTable
 70
3
  0
LAYER
  5
A8F
330
A8E
100
AcDbSymbolTableRecord
100
AcDbLayerTableRecord
  2
0
 70
   0
 62
   7
  6
CONTINUOUS
  0
LAYER
  5
A90
330
A8E
100
AcDbSymbolTableRecord
100
AcDbLayerTableRecord
  2
none
 70
    0
 62
    7
  6
CONTINUOUS
  0
LAYER
  5
A91
330
A8E
100
AcDbSymbolTableRecord
100
AcDbLayerTableRecord
  2
Sketch
 70
    0
 62
    7
  6
CONTINUOUS
  0
ENDTAB
  0
TABLE
  2
STYLE
  5
70
330
0
100
AcDbSymbolTable
 70
     2
  0
STYLE
  5
71
330
70
100
AcDbSymbolTableRecord
100
AcDbTextStyleTableRecord
  2
STANDARD
 70
     0
 40
0.0
 41
1.0
 50
0.0
 71
     0
 42
2.5
  3
arial.ttf
  4

  0
STYLE
  5
72
330
70
100
AcDbSymbolTableRecord
100
AcDbTextStyleTableRecord
  2
ANNOTATIVE
 70
     0
 40
0.0
 41
1.0
 50
0.0
 71
     0
 42
2.5
  3
arial.ttf
  4

  0
ENDTAB
  0
TABLE
  2
VIEW
  5
73
330
0
100
AcDbSymbolTable
 70
     0
  0
ENDTAB
  0
TABLE
  2
UCS
  5
74
330
0
100
AcDbSymbolTable
 70
     0
  0
ENDTAB
  0
TABLE
  2
APPID
  5
75
330
0
100
AcDbSymbolTable
 70
     2
  0
APPID
  5
76
330
75
100
AcDbSymbolTableRecord
100
AcDbRegAppTableRecord
  2
ACAD
 70
     0
  0
APPID
  5
77
330
75
100
AcDbSymbolTableRecord
100
AcDbRegAppTableRecord
  2
ACADANNOTATIVE
 70
     0
  0
ENDTAB
  0
TABLE
  2
DIMSTYLE
  5
78
330
0
100
AcDbSymbolTable
 70
     2
  0
DIMSTYLE
105
79
330
78
100
AcDbSymbolTableRecord
100
AcDbDimStyleTableRecord
  2
STANDARD
 70
     0
  3

  4

  5

  6

  7

 40
0.0
 41
2.5
 42
0.625
 43
3.75
 44
1.25
 45
0.0
 46
0.0
 47
0.0
 48
0.0
140
2.5
141
2.5
142
0.0
143
0.03937007874016
144
1.0
145
0.0
146
1.0
147
0.625
 71
     0
 72
     0
 73
     0
 74
     0
 75
     0
 76
     0
 77
     1
 78
     8
170
     0
171
     3
172
     1
173
     0
174
     0
175
     0
176
     0
177
     0
178
     0
270
     2
271
     2
272
     2
273
     2
274
     3
340
71
275
     0
280
     0
281
     0
282
     0
283
     0
284
     8
285
     0
286
     0
287
     3
288
     0
  0
ENDTAB
  0
TABLE
  2
BLOCK_RECORD
  5
A01
330
0
100
AcDbSymbolTable
  70
5
  0
BLOCK_RECORD
  5
A02
330
A01
100
AcDbSymbolTableRecord
100
AcDbBlockTableRecord
  2
*MODEL_SPACE
  0
BLOCK_RECORD
  5
A03
330
A01
100
AcDbSymbolTableRecord
100
AcDbBlockTableRecord
  2
*PAPER_SPACE
  0
ENDTAB
  0
ENDSEC
  0
SECTION
  2
BLOCKS
  0
BLOCK
  5
A04
330
A02
100
AcDbEntity
  8
0
100
AcDbBlockBegin
  2
*MODEL_SPACE
 70
   0
 10
0
 20
0
 30
0
  3
*MODEL_SPACE
  1
 
  0
ENDBLK
  5
A05
330
A02
100
AcDbEntity
  8
0
100
AcDbBlockEnd
  0
BLOCK
  5
A06
330
A03
100
AcDbEntity
 67
1
  8
0
100
AcDbBlockBegin
  2
*PAPER_SPACE
 70
   0
 10
0
 20
0
 30
0
  3
*PAPER_SPACE
  1
 
  0
ENDBLK
  5
A07
330
A03
100
AcDbEntity
 67
    1
  8
0
100
AcDbBlockEnd
  0
ENDSEC
  0
SECTION
  2
ENTITIES
  0
ARC
  5
A08
330
A02
100
AcDbEntity
  8
Sketch
100
AcDbCircle
 10
10.000000000
 20
245.000000000
 30
0.000000000
 40
10.000000000
100
AcDbArc
 50
90.000000000
 51
180.000000000
  0
LINE
  5
A09
330
A02
100
AcDbEntity
  8
Sketch
100
AcDbLine
 10
0.000000000
 20
245.000000000
 30
0.000000000
 11
0.000000000
 21
10.000000000
 31
0.000000000
  0
ARC
  5
A0A
330
A02
100
AcDbEntity
  8
Sketch
100
AcDbCircle
 10
10.000000000
 20
10.000000000
 30
0.000000000
 40
10.000000000
100
AcDbArc
 50
180.000000000
 51
-90.000000000
  0
LINE
  5
A0B
330
A02
100
AcDbEntity
  8
Sketch
100
AcDbLine
 10
10.000000000
 20
0.000000000
 30
0.000000000
 11
345.000000000
 21
0.000000000
 31
0.000000000
  0
ARC
  5
A0C
330
A02
100
AcDbEntity
  8
Sketch
100
AcDbCircle
 10
345.000000000
 20
10.000000000
 30
0.000000000
 40
10.000000000
100
AcDbArc
 50
-90.000000000
 51
-0.000000000
  0
LINE
  5
A0D
330
A02
100
AcDbEntity
  8
Sketch
100
AcDbLine
 10
355.000000000
 20
10.000000000
 30
0.000000000
 11
355.000000000
 21
245.000000000
 31
0.000000000
  0
ARC
  5
A0E
330
A02
100
AcDbEntity
  8
Sketch
100
AcDbCircle
 10
345.000000000
 20
245.000000000
 30
0.000000000
 40
10.000000000
100
AcDbArc
 50
0.000000000
 51
90.000000000
  0
LINE
  5
A0F
330
A02
100
AcDbEntity
  8
Sketch
100
AcDbLine
 10
10.000000000
 20
255.000000000
 30
0.000000000
 11
345.000000000
 21
255.000000000
 31
0.000000000
  0
LINE
  5
A10
330
A02
100
AcDbEntity
  8
Sketch
100
AcDbLine
 10
323.691795093
 20
217.500000000
 30
0.000000000
 11
315.320216190
 21
232.000000000
 31
0.000000000
  0
LINE
  5
A11
330
A02
100
AcDbEntity
  8
Sketch
100
AcDbLine
 10
315.320216190
 20
232.000000000
 30
0.000000000
 11
298.577058383
 21
232.000000000
 31
0.000000000
  0
LINE
  5
A12
330
A02
100
AcDbEntity
  8
Sketch
100
AcDbLine
 10
298.577058383
 20
232.000000000
 30
0.000000000
 11
290.205479480
 21
217.500000000
 31
0.000000000
  0
LINE
  5
A13
330
A02
100
AcDbEntity
  8
Sketch
100
AcDbLine
 10
290.205479480
 20
217.500000000
 30
0.000000000
 11
298.577058383
 21
203.000000000
 31
0.000000000
  0
LINE
  5
A14
330
A02
100
AcDbEntity
  8
Sketch
100
AcDbLine
 10
298.577058383
 20
203.000000000
 30
0.000000000
 11
315.320216190
 21
203.000000000
 31
0.000000000
  0
LINE
  5
A15
330
A02
100
AcDbEntity
  8
Sketch
100
AcDbLine
 10
315.320216190
 20
203.000000000
 30
0.000000000
 11
323.691795093
 21
217.500000000
 31
0.000000000
  0
LINE
  5
A16
330
A02
100
AcDbEntity
  8
Sketch
100
AcDbLine
 10
63.884173958
 20
187.500000000
 30
0.000000000
 11
55.512595055
 21
202.000000000
 31
0.000000000
  0
LINE
  5
A17
330
A02
100
AcDbEntity
  8
Sketch
100
AcDbLine
 10
55.512595055
 20
202.000000000
 30
0.000000000
 11
38.769437248
 21
202.000000000
 31
0.000000000
  0
LINE
  5
A18
330
A02
100
AcDbEntity
  8
Sketch
100
AcDbLine
 10
38.769437248
 20
202.000000000
 30
0.000000000
 11
30.397858345
 21
187.500000000
 31
0.000000000
  0
LINE
  5
A19
330
A02
100
AcDbEntity
  8
Sketch
100
AcDbLine
 10
30.397858345
 20
187.500000000
 30
0.000000000
 11
38.769437248
 21
173.000000000
 31
0.000000000
  0
LINE
  5
A1A
330
A02
100
AcDbEntity
  8
Sketch
100
AcDbLine
 10
38.769437248
 20
173.000000000
 30
0.000000000
 11
55.512595055
 21
173.000000000
 31
0.000000000
  0
LINE
  5
A1B
330
A02
100
AcDbEntity
  8
Sketch
100
AcDbLine
 10
55.512595055
 20
173.000000000
 30
0.000000000
 11
63.884173958
 21
187.500000000
 31
0.000000000
  0
LINE
  5
A1C
330
A02
100
AcDbEntity
  8
Sketch
100
AcDbLine
 10
115.845698185
 20
217.500000000
 30
0.000000000
 11
107.474119282
 21
232.000000000
 31
0.000000000
  0
LINE
  5
A1D
330
A02
100
AcDbEntity
  8
Sketch
100
AcDbLine
 10
107.474119282
 20
232.000000000
 30
0.000000000
 11
90.730961475
 21
232.000000000
 31
0.000000000
  0
LINE
  5
A1E
330
A02
100
AcDbEntity
  8
Sketch
100
AcDbLine
 10
90.730961475
 20
232.000000000
 30
0.000000000
 11
82.359382572
 21
217.500000000
 31
0.000000000
  0
LINE
  5
A1F
330
A02
100
AcDbEntity
  8
Sketch
100
AcDbLine
 10
82.359382572
 20
217.500000000
 30
0.000000000
 11
90.730961475
 21
203.000000000
 31
0.000000000
  0
LINE
  5
A20
330
A02
100
AcDbEntity
  8
Sketch
100
AcDbLine
 10
90.730961475
 20
203.000000000
 30
0.000000000
 11
107.474119282
 21
203.000000000
 31
0.000000000
  0
LINE
  5
A21
330
A02
100
AcDbEntity
  8
Sketch
100
AcDbLine
 10
107.474119282
 20
203.000000000
 30
0.000000000
 11
115.845698185
 21
217.500000000
 31
0.000000000
  0
LINE
  5
A22
330
A02
100
AcDbEntity
  8
Sketch
100
AcDbLine
 10
219.768746639
 20
217.500000000
 30
0.000000000
 11
211.397167736
 21
232.000000000
 31
0.000000000
  0
LINE
  5
A23
330
A02
100
AcDbEntity
  8
Sketch
100
AcDbLine
 10
211.397167736
 20
232.000000000
 30
0.000000000
 11
194.654009929
 21
232.000000000
 31
0.000000000
  0
LINE
  5
A24
330
A02
100
AcDbEntity
  8
Sketch
100
AcDbLine
 10
194.654009929
 20
232.000000000
 30
0.000000000
 11
186.282431026
 21
217.500000000
 31
0.000000000
  0
LINE
  5
A25
330
A02
100
AcDbEntity
  8
Sketch
100
AcDbLine
 10
186.282431026
 20
217.500000000
 30
0.000000000
 11
194.654009929
 21
203.000000000
 31
0.000000000
  0
LINE
  5
A26
330
A02
100
AcDbEntity
  8
Sketch
100
AcDbLine
 10
194.654009929
 20
203.000000000
 30
0.000000000
 11
211.397167736
 21
203.000000000
 31
0.000000000
  0
LINE
  5
A27
330
A02
100
AcDbEntity
  8
Sketch
100
AcDbLine
 10
211.397167736
 20
203.000000000
 30
0.000000000
 11
219.768746639
 21
217.500000000
 31
0.000000000
  0
LINE
  5
A28
330
A02
100
AcDbEntity
  8
Sketch
100
AcDbLine
 10
271.730270866
 20
187.500000000
 30
0.000000000
 11
263.358691963
 21
202.000000000
 31
0.000000000
  0
LINE
  5
A29
330
A02
100
AcDbEntity
  8
Sketch
100
AcDbLine
 10
263.358691963
 20
202.000000000
 30
0.000000000
 11
246.615534156
 21
202.000000000
 31
0.000000000
  0
LINE
  5
A2A
330
A02
100
AcDbEntity
  8
Sketch
100
AcDbLine
 10
246.615534156
 20
202.000000000
 30
0.000000000
 11
238.243955253
 21
187.500000000
 31
0.000000000
  0
LINE
  5
A2B
330
A02
100
AcDbEntity
  8
Sketch
100
AcDbLine
 10
238.243955253
 20
187.500000000
 30
0.000000000
 11
246.615534156
 21
173.000000000
 31
0.000000000
  0
LINE
  5
A2C
330
A02
100
AcDbEntity
  8
Sketch
100
AcDbLine
 10
246.615534156
 20
173.000000000
 30
0.000000000
 11
263.358691963
 21
173.000000000
 31
0.000000000
  0
LINE
  5
A2D
330
A02
100
AcDbEntity
  8
Sketch
100
AcDbLine
 10
263.358691963
 20
173.000000000
 30
0.000000000
 11
271.730270866
 21
187.500000000
 31
0.000000000
  0
LINE
  5
A2E
330
A02
100
AcDbEntity
  8
Sketch
100
AcDbLine
 10
167.807222412
 20
127.500000000
 30
0.000000000
 11
159.435643509
 21
142.000000000
 31
0.000000000
  0
LINE
  5
A2F
330
A02
100
AcDbEntity
  8
Sketch
100
AcDbLine
 10
159.435643509
 20
142.000000000
 30
0.000000000
 11
142.692485702
 21
142.000000000
 31
0.000000000
  0
LINE
  5
A30
330
A02
100
AcDbEntity
  8
Sketch
100
AcDbLine
 10
142.692485702
 20
142.000000000
 30
0.000000000
 11
134.320906799
 21
127.500000000
 31
0.000000000
  0
LINE
  5
A31
330
A02
100
AcDbEntity
  8
Sketch
100
AcDbLine
 10
134.320906799
 20
127.500000000
 30
0.000000000
 11
142.692485702
 21
113.000000000
 31
0.000000000
  0
LINE
  5
A32
330
A02
100
AcDbEntity
  8
Sketch
100
AcDbLine
 10
142.692485702
 20
113.000000000
 30
0.000000000
 11
159.435643509
 21
113.000000000
 31
0.000000000
  0
LINE
  5
A33
330
A02
100
AcDbEntity
  8
Sketch
100
AcDbLine
 10
159.435643509
 20
113.000000000
 30
0.000000000
 11
167.807222412
 21
127.500000000
 31
0.000000000
  0
LINE
  5
A34
330
A02
100
AcDbEntity
  8
Sketch
100
AcDbLine
 10
115.845698185
 20
157.500000000
 30
0.000000000
 11
107.474119282
 21
172.000000000
 31
0.000000000
  0
LINE
  5
A35
330
A02
100
AcDbEntity
  8
Sketch
100
AcDbLine
 10
107.474119282
 20
172.000000000
 30
0.000000000
 11
90.730961475
 21
172.000000000
 31
0.000000000
  0
LINE
  5
A36
330
A02
100
AcDbEntity
  8
Sketch
100
AcDbLine
 10
90.730961475
 20
172.000000000
 30
0.000000000
 11
82.359382572
 21
157.500000000
 31
0.000000000
  0
LINE
  5
A37
330
A02
100
AcDbEntity
  8
Sketch
100
AcDbLine
 10
82.359382572
 20
157.500000000
 30
0.000000000
 11
90.730961475
 21
143.000000000
 31
0.000000000
  0
LINE
  5
A38
330
A02
100
AcDbEntity
  8
Sketch
100
AcDbLine
 10
90.730961475
 20
143.000000000
 30
0.000000000
 11
107.474119282
 21
143.000000000
 31
0.000000000
  0
LINE
  5
A39
330
A02
100
AcDbEntity
  8
Sketch
100
AcDbLine
 10
107.474119282
 20
143.000000000
 30
0.000000000
 11
115.845698185
 21
157.500000000
 31
0.000000000
  0
LINE
  5
A3A
330
A02
100
AcDbEntity
  8
Sketch
100
AcDbLine
 10
323.691795093
 20
157.500000000
 30
0.000000000
 11
315.320216190
 21
172.000000000
 31
0.000000000
  0
LINE
  5
A3B
330
A02
100
AcDbEntity
  8
Sketch
100
AcDbLine
 10
315.320216190
 20
172.000000000
 30
0.000000000
 11
298.577058383
 21
172.000000000
 31
0.000000000
  0
LINE
  5
A3C
330
A02
100
AcDbEntity
  8
Sketch
100
AcDbLine
 10
298.577058383
 20
172.000000000
 30
0.000000000
 11
290.205479480
 21
157.500000000
 31
0.000000000
  0
LINE
  5
A3D
330
A02
100
AcDbEntity
  8
Sketch
100
AcDbLine
 10
290.205479480
 20
157.500000000
 30
0.000000000
 11
298.577058383
 21
143.000000000
 31
0.000000000
  0
LINE
  5
A3E
330
A02
100
AcDbEntity
  8
Sketch
100
AcDbLine
 10
298.577058383
 20
143.000000000
 30
0.000000000
 11
315.320216190
 21
143.000000000
 31
0.000000000
  0
LINE
  5
A3F
330
A02
100
AcDbEntity
  8
Sketch
100
AcDbLine
 10
315.320216190
 20
143.000000000
 30
0.000000000
 11
323.691795093
 21
157.500000000
 31
0.000000000
  0
LINE
  5
A40
330
A02
100
AcDbEntity
  8
Sketch
100
AcDbLine
 10
115.845698185
 20
37.500000000
 30
0.000000000
 11
107.474119282
 21
52.000000000
 31
0.000000000
  0
LINE
  5
A41
330
A02
100
AcDbEntity
  8
Sketch
100
AcDbLine
 10
107.474119282
 20
52.000000000
 30
0.000000000
 11
90.730961475
 21
52.000000000
 31
0.000000000
  0
LINE
  5
A42
330
A02
100
AcDbEntity
  8
Sketch
100
AcDbLine
 10
90.730961475
 20
52.000000000
 30
0.000000000
 11
82.359382572
 21
37.500000000
 31
0.000000000
  0
LINE
  5
A43
330
A02
100
AcDbEntity
  8
Sketch
100
AcDbLine
 10
82.359382572
 20
37.500000000
 30
0.000000000
 11
90.730961475
 21
23.000000000
 31
0.000000000
  0
LINE
  5
A44
330
A02
100
AcDbEntity
  8
Sketch
100
AcDbLine
 10
90.730961475
 20
23.000000000
 30
0.000000000
 11
107.474119282
 21
23.000000000
 31
0.000000000
  0
LINE
  5
A45
330
A02
100
AcDbEntity
  8
Sketch
100
AcDbLine
 10
107.474119282
 20
23.000000000
 30
0.000000000
 11
115.845698185
 21
37.500000000
 31
0.000000000
  0
LINE
  5
A46
330
A02
100
AcDbEntity
  8
Sketch
100
AcDbLine
 10
167.807222412
 20
67.500000000
 30
0.000000000
 11
159.435643509
 21
82.000000000
 31
0.000000000
  0
LINE
  5
A47
330
A02
100
AcDbEntity
  8
Sketch
100
AcDbLine
 10
159.435643509
 20
82.000000000
 30
0.000000000
 11
142.692485702
 21
82.000000000
 31
0.000000000
  0
LINE
  5
A48
330
A02
100
AcDbEntity
  8
Sketch
100
AcDbLine
 10
142.692485702
 20
82.000000000
 30
0.000000000
 11
134.320906799
 21
67.500000000
 31
0.000000000
  0
LINE
  5
A49
330
A02
100
AcDbEntity
  8
Sketch
100
AcDbLine
 10
134.320906799
 20
67.500000000
 30
0.000000000
 11
142.692485702
 21
53.000000000
 31
0.000000000
  0
LINE
  5
A4A
330
A02
100
AcDbEntity
  8
Sketch
100
AcDbLine
 10
142.692485702
 20
53.000000000
 30
0.000000000
 11
159.435643509
 21
53.000000000
 31
0.000000000
  0
LINE
  5
A4B
330
A02
100
AcDbEntity
  8
Sketch
100
AcDbLine
 10
159.435643509
 20
53.000000000
 30
0.000000000
 11
167.807222412
 21
67.500000000
 31
0.000000000
  0
LINE
  5
A4C
330
A02
100
AcDbEntity
  8
Sketch
100
AcDbLine
 10
271.730270866
 20
67.500000000
 30
0.000000000
 11
263.358691963
 21
82.000000000
 31
0.000000000
  0
LINE
  5
A4D
330
A02
100
AcDbEntity
  8
Sketch
100
AcDbLine
 10
263.358691963
 20
82.000000000
 30
0.000000000
 11
246.615534156
 21
82.000000000
 31
0.000000000
  0
LINE
  5
A4E
330
A02
100
AcDbEntity
  8
Sketch
100
AcDbLine
 10
246.615534156
 20
82.000000000
 30
0.000000000
 11
238.243955253
 21
67.500000000
 31
0.000000000
  0
LINE
  5
A4F
330
A02
100
AcDbEntity
  8
Sketch
100
AcDbLine
 10
238.243955253
 20
67.500000000
 30
0.000000000
 11
246.615534156
 21
53.000000000
 31
0.000000000
  0
LINE
  5
A50
330
A02
100
AcDbEntity
  8
Sketch
100
AcDbLine
 10
246.615534156
 20
53.000000000
 30
0.000000000
 11
263.358691963
 21
53.000000000
 31
0.000000000
  0
LINE
  5
A51
330
A02
100
AcDbEntity
  8
Sketch
100
AcDbLine
 10
263.358691963
 20
53.000000000
 30
0.000000000
 11
271.730270866
 21
67.500000000
 31
0.000000000
  0
LINE
  5
A52
330
A02
100
AcDbEntity
  8
Sketch
100
AcDbLine
 10
82.359382572
 20
97.500000000
 30
0.000000000
 11
90.730961475
 21
112.000000000
 31
0.000000000
  0
LINE
  5
A53
330
A02
100
AcDbEntity
  8
Sketch
100
AcDbLine
 10
90.730961475
 20
112.000000000
 30
0.000000000
 11
107.474119282
 21
112.000000000
 31
0.000000000
  0
LINE
  5
A54
330
A02
100
AcDbEntity
  8
Sketch
100
AcDbLine
 10
107.474119282
 20
112.000000000
 30
0.000000000
 11
115.845698185
 21
97.500000000
 31
0.000000000
  0
LINE
  5
A55
330
A02
100
AcDbEntity
  8
Sketch
100
AcDbLine
 10
115.845698185
 20
97.500000000
 30
0.000000000
 11
107.474119282
 21
83.000000000
 31
0.000000000
  0
LINE
  5
A56
330
A02
100
AcDbEntity
  8
Sketch
100
AcDbLine
 10
107.474119282
 20
83.000000000
 30
0.000000000
 11
90.730961475
 21
83.000000000
 31
0.000000000
  0
LINE
  5
A57
330
A02
100
AcDbEntity
  8
Sketch
100
AcDbLine
 10
90.730961475
 20
83.000000000
 30
0.000000000
 11
82.359382572
 21
97.500000000
 31
0.000000000
  0
LINE
  5
A58
330
A02
100
AcDbEntity
  8
Sketch
100
AcDbLine
 10
271.730270866
 20
127.500000000
 30
0.000000000
 11
263.358691963
 21
142.000000000
 31
0.000000000
  0
LINE
  5
A59
330
A02
100
AcDbEntity
  8
Sketch
100
AcDbLine
 10
263.358691963
 20
142.000000000
 30
0.000000000
 11
246.615534156
 21
142.000000000
 31
0.000000000
  0
LINE
  5
A5A
330
A02
100
AcDbEntity
  8
Sketch
100
AcDbLine
 10
246.615534156
 20
142.000000000
 30
0.000000000
 11
238.243955253
 21
127.500000000
 31
0.000000000
  0
LINE
  5
A5B
330
A02
100
AcDbEntity
  8
Sketch
100
AcDbLine
 10
238.243955253
 20
127.500000000
 30
0.000000000
 11
246.615534156
 21
113.000000000
 31
0.000000000
  0
LINE
  5
A5C
330
A02
100
AcDbEntity
  8
Sketch
100
AcDbLine
 10
246.615534156
 20
113.000000000
 30
0.000000000
 11
263.358691963
 21
113.000000000
 31
0.000000000
  0
LINE
  5
A5D
330
A02
100
AcDbEntity
  8
Sketch
100
AcDbLine
 10
263.358691963
 20
113.000000000
 30
0.000000000
 11
271.730270866
 21
127.500000000
 31
0.000000000
  0
LINE
  5
A5E
330
A02
100
AcDbEntity
  8
Sketch
100
AcDbLine
 10
63.884173958
 20
67.500000000
 30
0.000000000
 11
55.512595055
 21
82.000000000
 31
0.000000000
  0
LINE
  5
A5F
330
A02
100
AcDbEntity
  8
Sketch
100
AcDbLine
 10
55.512595055
 20
82.000000000
 30
0.000000000
 11
38.769437248
 21
82.000000000
 31
0.000000000
  0
LINE
  5
A60
330
A02
100
AcDbEntity
  8
Sketch
100
AcDbLine
 10
38.769437248
 20
82.000000000
 30
0.000000000
 11
30.397858345
 21
67.500000000
 31
0.000000000
  0
LINE
  5
A61
330
A02
100
AcDbEntity
  8
Sketch
100
AcDbLine
 10
30.397858345
 20
67.500000000
 30
0.000000000
 11
38.769437248
 21
53.000000000
 31
0.000000000
  0
LINE
  5
A62
330
A02
100
AcDbEntity
  8
Sketch
100
AcDbLine
 10
38.769437248
 20
53.000000000
 30
0.000000000
 11
55.512595055
 21
53.000000000
 31
0.000000000
  0
LINE
  5
A63
330
A02
100
AcDbEntity
  8
Sketch
100
AcDbLine
 10
55.512595055
 20
53.000000000
 30
0.000000000
 11
63.884173958
 21
67.500000000
 31
0.000000000
  0
LINE
  5
A64
330
A02
100
AcDbEntity
  8
Sketch
100
AcDbLine
 10
219.768746639
 20
37.500000000
 30
0.000000000
 11
211.397167736
 21
52.000000000
 31
0.000000000
  0
LINE
  5
A65
330
A02
100
AcDbEntity
  8
Sketch
100
AcDbLine
 10
211.397167736
 20
52.000000000
 30
0.000000000
 11
194.654009929
 21
52.000000000
 31
0.000000000
  0
LINE
  5
A66
330
A02
100
AcDbEntity
  8
Sketch
100
AcDbLine
 10
194.654009929
 20
52.000000000
 30
0.000000000
 11
186.282431026
 21
37.500000000
 31
0.000000000
  0
LINE
  5
A67
330
A02
100
AcDbEntity
  8
Sketch
100
AcDbLine
 10
186.282431026
 20
37.500000000
 30
0.000000000
 11
194.654009929
 21
23.000000000
 31
0.000000000
  0
LINE
  5
A68
330
A02
100
AcDbEntity
  8
Sketch
100
AcDbLine
 10
194.654009929
 20
23.000000000
 30
0.000000000
 11
211.397167736
 21
23.000000000
 31
0.000000000
  0
LINE
  5
A69
330
A02
100
AcDbEntity
  8
Sketch
100
AcDbLine
 10
211.397167736
 20
23.000000000
 30
0.000000000
 11
219.768746639
 21
37.500000000
 31
0.000000000
  0
LINE
  5
A6A
330
A02
100
AcDbEntity
  8
Sketch
100
AcDbLine
 10
323.691795093
 20
37.500000000
 30
0.000000000
 11
315.320216190
 21
52.000000000
 31
0.000000000
  0
LINE
  5
A6B
330
A02
100
AcDbEntity
  8
Sketch
100
AcDbLine
 10
315.320216190
 20
52.000000000
 30
0.000000000
 11
298.577058383
 21
52.000000000
 31
0.000000000
  0
LINE
  5
A6C
330
A02
100
AcDbEntity
  8
Sketch
100
AcDbLine
 10
298.577058383
 20
52.000000000
 30
0.000000000
 11
290.205479480
 21
37.500000000
 31
0.000000000
  0
LINE
  5
A6D
330
A02
100
AcDbEntity
  8
Sketch
100
AcDbLine
 10
290.205479480
 20
37.500000000
 30
0.000000000
 11
298.577058383
 21
23.000000000
 31
0.000000000
  0
LINE
  5
A6E
330
A02
100
AcDbEntity
  8
Sketch
100
AcDbLine
 10
298.577058383
 20
23.000000000
 30
0.000000000
 11
315.320216190
 21
23.000000000
 31
0.000000000
  0
LINE
  5
A6F
330
A02
100
AcDbEntity
  8
Sketch
100
AcDbLine
 10
315.320216190
 20
23.000000000
 30
0.000000000
 11
323.691795093
 21
37.500000000
 31
0.000000000
  0
LINE
  5
A70
330
A02
100
AcDbEntity
  8
Sketch
100
AcDbLine
 10
219.768746639
 20
97.500000000
 30
0.000000000
 11
211.397167736
 21
112.000000000
 31
0.000000000
  0
LINE
  5
A71
330
A02
100
AcDbEntity
  8
Sketch
100
AcDbLine
 10
211.397167736
 20
112.000000000
 30
0.000000000
 11
194.654009929
 21
112.000000000
 31
0.000000000
  0
LINE
  5
A72
330
A02
100
AcDbEntity
  8
Sketch
100
AcDbLine
 10
194.654009929
 20
112.000000000
 30
0.000000000
 11
186.282431026
 21
97.500000000
 31
0.000000000
  0
LINE
  5
A73
330
A02
100
AcDbEntity
  8
Sketch
100
AcDbLine
 10
186.282431026
 20
97.500000000
 30
0.000000000
 11
194.654009929
 21
83.000000000
 31
0.000000000
  0
LINE
  5
A74
330
A02
100
AcDbEntity
  8
Sketch
100
AcDbLine
 10
194.654009929
 20
83.000000000
 30
0.000000000
 11
211.397167736
 21
83.000000000
 31
0.000000000
  0
LINE
  5
A75
330
A02
100
AcDbEntity
  8
Sketch
100
AcDbLine
 10
211.397167736
 20
83.000000000
 30
0.000000000
 11
219.768746639
 21
97.500000000
 31
0.000000000
  0
LINE
  5
A76
330
A02
100
AcDbEntity
  8
Sketch
100
AcDbLine
 10
323.691795093
 20
97.500000000
 30
0.000000000
 11
315.320216190
 21
112.000000000
 31
0.000000000
  0
LINE
  5
A77
330
A02
100
AcDbEntity
  8
Sketch
100
AcDbLine
 10
315.320216190
 20
112.000000000
 30
0.000000000
 11
298.577058383
 21
112.000000000
 31
0.000000000
  0
LINE
  5
A78
330
A02
100
AcDbEntity
  8
Sketch
100
AcDbLine
 10
298.577058383
 20
112.000000000
 30
0.000000000
 11
290.205479480
 21
97.500000000
 31
0.000000000
  0
LINE
  5
A79
330
A02
100
AcDbEntity
  8
Sketch
100
AcDbLine
 10
290.205479480
 20
97.500000000
 30
0.000000000
 11
298.577058383
 21
83.000000000
 31
0.000000000
  0
LINE
  5
A7A
330
A02
100
AcDbEntity
  8
Sketch
100
AcDbLine
 10
298.577058383
 20
83.000000000
 30
0.000000000
 11
315.320216190
 21
83.000000000
 31
0.000000000
  0
LINE
  5
A7B
330
A02
100
AcDbEntity
  8
Sketch
100
AcDbLine
 10
315.320216190
 20
83.000000000
 30
0.000000000
 11
323.691795093
 21
97.500000000
 31
0.000000000
  0
LINE
  5
A7C
330
A02
100
AcDbEntity
  8
Sketch
100
AcDbLine
 10
167.807222412
 20
187.500000000
 30
0.000000000
 11
159.435643509
 21
202.000000000
 31
0.000000000
  0
LINE
  5
A7D
330
A02
100
AcDbEntity
  8
Sketch
100
AcDbLine
 10
159.435643509
 20
202.000000000
 30
0.000000000
 11
142.692485702
 21
202.000000000
 31
0.000000000
  0
LINE
  5
A7E
330
A02
100
AcDbEntity
  8
Sketch
100
AcDbLine
 10
142.692485702
 20
202.000000000
 30
0.000000000
 11
134.320906799
 21
187.500000000
 31
0.000000000
  0
LINE
  5
A7F
330
A02
100
AcDbEntity
  8
Sketch
100
AcDbLine
 10
134.320906799
 20
187.500000000
 30
0.000000000
 11
142.692485702
 21
173.000000000
 31
0.000000000
  0
LINE
  5
A80
330
A02
100
AcDbEntity
  8
Sketch
100
AcDbLine
 10
142.692485702
 20
173.000000000
 30
0.000000000
 11
159.435643509
 21
173.000000000
 31
0.000000000
  0
LINE
  5
A81
330
A02
100
AcDbEntity
  8
Sketch
100
AcDbLine
 10
159.435643509
 20
173.000000000
 30
0.000000000
 11
167.807222412
 21
187.500000000
 31
0.000000000
  0
LINE
  5
A82
330
A02
100
AcDbEntity
  8
Sketch
100
AcDbLine
 10
55.512595055
 20
113.000000000
 30
0.000000000
 11
63.884173958
 21
127.500000000
 31
0.000000000
  0
LINE
  5
A83
330
A02
100
AcDbEntity
  8
Sketch
100
AcDbLine
 10
63.884173958
 20
127.500000000
 30
0.000000000
 11
55.512595055
 21
142.000000000
 31
0.000000000
  0
LINE
  5
A84
330
A02
100
AcDbEntity
  8
Sketch
100
AcDbLine
 10
55.512595055
 20
142.000000000
 30
0.000000000
 11
38.769437248
 21
142.000000000
 31
0.000000000
  0
LINE
  5
A85
330
A02
100
AcDbEntity
  8
Sketch
100
AcDbLine
 10
38.769437248
 20
142.000000000
 30
0.000000000
 11
30.397858345
 21
127.500000000
 31
0.000000000
  0
LINE
  5
A86
330
A02
100
AcDbEntity
  8
Sketch
100
AcDbLine
 10
30.397858345
 20
127.500000000
 30
0.000000000
 11
38.769437248
 21
113.000000000
 31
0.000000000
  0
LINE
  5
A87
330
A02
100
AcDbEntity
  8
Sketch
100
AcDbLine
 10
38.769437248
 20
113.000000000
 30
0.000000000
 11
55.512595055
 21
113.000000000
 31
0.000000000
  0
LINE
  5
A88
330
A02
100
AcDbEntity
  8
Sketch
100
AcDbLine
 10
211.397167736
 20
143.000000000
 30
0.000000000
 11
219.768746639
 21
157.500000000
 31
0.000000000
  0
LINE
  5
A89
330
A02
100
AcDbEntity
  8
Sketch
100
AcDbLine
 10
219.768746639
 20
157.500000000
 30
0.000000000
 11
211.397167736
 21
172.000000000
 31
0.000000000
  0
LINE
  5
A8A
330
A02
100
AcDbEntity
  8
Sketch
100
AcDbLine
 10
211.397167736
 20
172.000000000
 30
0.000000000
 11
194.654009929
 21
172.000000000
 31
0.000000000
  0
LINE
  5
A8B
330
A02
100
AcDbEntity
  8
Sketch
100
AcDbLine
 10
194.654009929
 20
172.000000000
 30
0.000000000
 11
186.282431026
 21
157.500000000
 31
0.000000000
  0
LINE
  5
A8C
330
A02
100
AcDbEntity
  8
Sketch
100
AcDbLine
 10
186.282431026
 20
157.500000000
 30
0.000000000
 11
194.654009929
 21
143.000000000
 31
0.000000000
  0
LINE
  5
A8D
330
A02
100
AcDbEntity
  8
Sketch
100
AcDbLine
 10
194.654009929
 20
143.000000000
 30
0.000000000
 11
211.397167736
 21
143.000000000
 31
0.000000000
  0
ENDSEC
  0
SECTION
  2
OBJECTS
  0
DICTIONARY
  5
F000
330
0
100
AcDbDictionary
  3
ACAD_GROUP
350
F001
  0
DICTIONARY
  5
F001
330
F000
100
AcDbDictionary
  0
ENDSEC
  0
EOF